<?xml version="1.0" standalone="no"?>
<!DOCTYPE svg PUBLIC "-//W3C//DTD SVG 20010904//EN"
 "http://www.w3.org/TR/2001/REC-SVG-20010904/DTD/svg10.dtd">
<svg version="1.0" xmlns="http://www.w3.org/2000/svg"
 width="892.000000pt" height="1024.000000pt" viewBox="0 0 892.000000 1024.000000"
 preserveAspectRatio="xMidYMid meet">

<g transform="translate(0.000000,1024.000000) scale(0.100000,-0.100000)"
fill="#000000" stroke="none">
<path d="M2403 8980 c-13 -5 -23 -14 -23 -20 0 -5 -28 -43 -61 -83 -34 -39
-66 -82 -72 -95 -9 -20 -82 -51 -93 -39 -3 2 11 25 31 51 34 45 33 56 -6 35
-11 -5 -17 -14 -14 -19 3 -5 1 -12 -5 -15 -14 -9 -63 -86 -57 -91 2 -2 23 3
47 11 24 8 45 13 48 10 3 -3 -3 -18 -15 -33 -11 -15 -32 -47 -47 -71 l-28 -44
37 7 36 7 -21 -40 -20 -40 22 8 c20 7 67 73 68 94 0 4 -14 7 -30 7 -30 0 -30
0 -15 28 16 29 128 180 208 281 49 62 50 67 10 51z"/>
<path d="M6235 8881 c-23 -10 -54 -33 -69 -52 -25 -30 -28 -39 -23 -85 7 -65
23 -98 100 -200 70 -93 109 -124 156 -124 31 0 72 30 97 71 5 8 29 29 54 45
69 45 64 95 -16 184 -47 52 -25 61 26 10 43 -43 51 -46 81 -29 19 10 16 14
-37 72 -31 34 -61 64 -66 66 -5 2 -22 -9 -38 -24 l-28 -27 -56 46 c-30 24 -72
50 -93 55 -47 13 -40 14 -88 -8z m71 -27 c81 -54 234 -222 246 -271 8 -30 -20
-55 -34 -30 -14 26 -101 130 -190 228 -43 48 -78 89 -78 93 0 12 18 6 56 -20z
m-10 -126 c118 -139 188 -234 179 -248 -3 -5 -17 -10 -30 -10 -40 0 -112 81
-208 236 -53 85 -70 134 -47 134 5 0 53 -51 106 -112z"/>
<path d="M4230 8832 c0 -41 24 -70 46 -56 29 17 27 30 -11 58 l-35 27 0 -29z"/>
<path d="M4540 8645 c-10 -12 -10 -15 4 -15 20 0 52 -48 40 -59 -16 -15 -104
-40 -119 -34 -8 3 -27 2 -41 -1 l-26 -7 26 -24 c15 -14 36 -46 47 -72 22 -52
33 -63 67 -63 30 0 28 19 -8 84 l-31 54 103 32 c57 18 120 35 140 37 34 5 38
3 44 -22 20 -80 -17 -230 -82 -326 l-34 -51 49 41 c94 79 137 174 142 311 l4
85 -42 15 c-38 13 -44 12 -60 -2 -10 -9 -37 -21 -61 -28 -50 -13 -73 -2 -69
33 2 19 -4 22 -39 25 -27 2 -45 -2 -54 -13z"/>
<path d="M5018 8535 c5 -43 -25 -107 -79 -169 -52 -59 -36 -59 30 0 29 26 53
45 54 43 5 -8 45 -104 51 -121 3 -9 14 -22 26 -28 35 -19 34 13 -3 97 -45 99
-45 100 -20 150 24 48 16 63 -32 63 -29 0 -31 -2 -27 -35z"/>
<path d="M4230 8154 c-58 -18 -136 -43 -174 -53 l-68 -20 4 24 c3 14 1 22 -6
20 -166 -54 -391 -112 -467 -121 l-55 -6 4 41 c4 36 0 45 -32 77 -36 36 -37
37 -104 31 -37 -3 -86 -13 -109 -23 -39 -15 -43 -21 -43 -51 0 -18 -4 -33 -8
-33 -4 0 -24 -16 -45 -36 -50 -49 -51 -90 -2 -133 19 -17 35 -35 35 -41 0 -26
-160 -96 -262 -114 -34 -6 -38 -5 -38 14 0 16 -5 20 -17 16 -32 -8 -95 -16
-233 -26 -74 -6 -178 -20 -231 -32 l-97 -21 -21 -42 c-44 -88 -63 -159 -68
-260 -3 -63 -1 -116 7 -144 11 -43 12 -43 48 -37 228 38 501 43 578 11 89 -37
94 -69 23 -138 -81 -78 -84 -134 -9 -185 32 -22 42 -24 110 -19 152 12 291 77
319 150 18 49 8 83 -34 110 -83 53 -38 138 95 177 121 36 488 109 683 136 26
3 47 10 47 15 0 5 -11 53 -25 106 -53 203 -71 405 -42 463 21 43 80 64 182 65
76 1 97 4 128 24 42 26 60 52 51 75 -8 20 2 21 -124 -20z"/>
<path d="M1939 7993 c-41 -90 -88 -223 -79 -223 13 0 109 110 136 155 51 88
50 135 -3 135 -20 0 -29 -11 -54 -67z m35 -52 c-15 -25 -37 -57 -51 -71 l-24
-25 9 25 c6 14 22 51 36 84 22 50 28 57 41 46 14 -11 12 -18 -11 -59z"/>
<path d="M7056 7938 c-25 -40 -28 -85 -12 -142 17 -58 104 -195 144 -226 50
-40 0 -110 -77 -110 -66 0 -114 32 -206 137 -44 50 -81 90 -83 88 -2 -2 17
-44 43 -94 73 -141 200 -251 289 -251 71 0 106 65 106 197 0 240 -136 507
-204 401z m135 -211 c6 -21 8 -41 6 -43 -2 -2 -25 18 -50 45 -44 47 -59 86
-39 105 12 12 71 -64 83 -107z"/>
<path d="M1606 7890 c-32 -29 -76 -102 -76 -128 0 -8 25 -9 87 -5 l87 6 48 51
c37 40 47 47 47 31 0 -11 -13 -36 -29 -55 -23 -26 -30 -44 -30 -75 0 -47 14
-65 50 -65 29 0 83 50 95 88 9 32 -6 27 -38 -13 -18 -23 -36 -35 -53 -35 -38
0 -41 27 -5 64 27 28 31 39 31 89 0 31 -4 57 -9 57 -5 0 -25 -18 -45 -40 -34
-38 -39 -40 -92 -40 l-55 0 20 29 c22 30 28 71 11 71 -5 0 -25 -14 -44 -30z
m14 -50 c-20 -27 -50 -41 -50 -22 0 18 33 52 51 52 20 0 20 0 -1 -30z"/>
<path d="M7510 7816 c0 -8 5 -18 10 -21 6 -3 10 3 10 14 0 12 -4 21 -10 21 -5
0 -10 -6 -10 -14z"/>
<path d="M5530 7520 c-8 -5 -45 -14 -82 -21 -75 -13 -86 -25 -33 -35 22 -4 37
-13 41 -26 7 -22 -26 -409 -36 -421 -3 -4 -42 33 -86 83 -57 65 -78 96 -76
112 2 13 12 65 23 115 18 79 25 96 51 117 41 32 25 37 -47 16 -33 -10 -73 -21
-88 -24 -32 -8 -27 -26 7 -26 43 0 50 -22 36 -106 -7 -41 -16 -73 -19 -72 -4
2 -33 31 -64 65 -58 63 -64 86 -26 98 23 8 25 25 4 25 -26 0 -195 -54 -195
-62 0 -5 13 -8 29 -8 35 0 48 -10 150 -124 45 -49 81 -98 81 -109 0 -29 -34
-187 -40 -186 -3 0 -24 23 -47 52 -23 29 -87 106 -142 172 -57 68 -101 129
-101 141 0 12 10 28 23 37 41 27 9 29 -70 4 -43 -14 -95 -28 -115 -32 -46 -7
-50 -25 -8 -25 17 0 43 -6 58 -14 27 -14 45 -34 275 -313 65 -79 122 -143 127
-143 4 0 11 15 15 33 23 112 58 247 65 247 4 0 16 -12 26 -27 21 -33 156 -183
165 -183 6 0 22 109 44 315 29 268 31 278 59 300 36 29 33 49 -4 25z"/>
<path d="M7625 7421 c-3 -5 -30 -17 -60 -25 -39 -12 -62 -26 -84 -53 -41 -50
-39 -62 4 -25 21 19 62 39 107 52 40 12 79 23 86 25 6 3 12 11 12 20 0 17 -55
22 -65 6z"/>
<path d="M7240 7131 c0 -10 7 -24 15 -31 19 -16 42 -93 60 -204 8 -48 20 -94
26 -102 30 -37 128 6 161 71 8 16 5 14 -18 -6 -38 -35 -67 -49 -98 -49 -32 0
-46 25 -46 82 0 62 -33 171 -65 218 -31 45 -35 48 -35 21z"/>
<path d="M1386 6984 c-3 -9 -6 -35 -6 -59 0 -60 30 -94 95 -106 55 -10 91 -38
82 -63 -9 -22 -44 -20 -134 9 -95 30 -93 30 -93 1 0 -20 8 -25 53 -37 51 -14
52 -15 50 -49 -7 -154 -6 -207 5 -228 17 -29 47 -22 83 21 26 30 27 30 34 8
10 -32 -4 -96 -26 -120 -28 -30 -66 -27 -98 8 -35 38 -51 91 -67 226 l-13 110
4 -140 c2 -91 9 -158 19 -192 43 -136 148 -163 191 -49 30 78 8 256 -31 256
-7 0 -24 -16 -37 -35 -13 -19 -27 -32 -30 -28 -13 13 -8 173 6 178 7 3 50 -6
97 -20 65 -19 86 -22 92 -13 15 25 7 37 -31 48 -37 10 -38 12 -44 60 -10 84
-26 99 -139 124 -40 9 -64 50 -50 81 7 14 8 25 3 25 -5 0 -12 -7 -15 -16z"/>
<path d="M7750 6955 c0 -13 -4 -14 -20 -5 -19 10 -20 8 -18 -62 1 -64 2 -66 5
-20 4 47 6 52 24 47 16 -5 19 -2 19 24 0 17 -2 31 -5 31 -3 0 -5 -7 -5 -15z"/>
<path d="M7721 6753 c-1 -50 17 -143 32 -161 8 -11 13 -9 23 10 8 13 14 32 14
43 0 17 2 17 10 5 9 -13 10 -13 10 0 0 8 -4 21 -9 29 -7 11 -11 5 -16 -22 -13
-70 -40 -35 -54 70 -7 54 -9 60 -10 26z"/>
<path d="M7534 6719 c-3 -6 5 -23 19 -37 23 -25 27 -40 37 -164 12 -135 12
-137 -10 -168 -35 -49 -150 -139 -193 -151 -45 -12 -47 -37 -4 -52 24 -8 31
-5 60 25 l32 33 3 -117 c2 -111 12 -146 26 -95 3 12 6 70 6 128 l0 106 43 54
42 53 3 -177 c1 -107 6 -177 12 -177 6 0 10 3 10 8 0 4 5 47 10 96 9 90 0 329
-19 526 -7 71 -14 98 -27 107 -22 16 -41 17 -50 2z"/>
<path d="M2960 6636 c-153 -46 -234 -121 -261 -240 -32 -143 73 -312 207 -333
35 -5 53 -17 54 -34 0 -9 -107 -29 -154 -29 -46 0 -58 6 -74 35 -11 19 -11 19
-12 1 0 -10 5 -48 12 -83 10 -57 14 -64 32 -59 12 3 64 12 116 21 52 8 105 17
117 20 l22 5 -20 67 c-10 38 -19 69 -19 71 0 1 -18 9 -40 18 -50 20 -83 58
-109 129 -46 121 -34 237 32 312 117 133 309 75 366 -112 38 -121 24 -214 -40
-278 l-39 -39 7 -70 6 -70 46 6 c125 16 244 35 247 39 8 8 -29 156 -37 151 -5
-3 -9 -14 -9 -24 0 -27 -34 -46 -110 -59 -36 -7 -75 -15 -87 -18 -18 -4 -23
-1 -23 15 0 13 15 29 45 46 83 49 128 132 127 237 0 117 -61 213 -164 259 -60
26 -178 34 -238 16z"/>
<path d="M7450 6616 c0 -8 -11 -36 -25 -62 -32 -60 -34 -144 -5 -191 22 -37
44 -41 79 -17 33 24 51 74 51 145 0 60 -2 64 -40 101 -43 40 -60 47 -60 24z
m60 -82 c21 -54 6 -138 -26 -151 -26 -10 -54 32 -54 79 0 80 57 132 80 72z"/>
<path d="M6576 6520 c3 -14 11 -32 16 -40 6 -10 7 -7 2 10 -3 14 -11 32 -16
40 -6 10 -7 7 -2 -10z"/>
<path d="M6600 6455 c0 -5 5 -17 10 -25 5 -8 10 -10 10 -5 0 6 -5 17 -10 25
-5 8 -10 11 -10 5z"/>
<path d="M6620 6408 c0 -11 68 -158 75 -158 3 0 -1 15 -8 33 -20 45 -66 133
-67 125z"/>
<path d="M6120 6119 c-25 -11 -88 -36 -140 -56 -113 -42 -136 -58 -67 -48 55
7 73 -2 82 -46 7 -30 -17 -86 -171 -404 -55 -112 -59 -118 -66 -90 -103 424
-103 427 -46 464 21 13 36 27 33 29 -7 8 -305 -92 -305 -102 0 -5 17 -6 38 -2
73 11 76 6 162 -357 46 -195 41 -227 -35 -257 -17 -7 -24 -14 -18 -17 15 -5
293 84 308 99 7 7 -8 8 -42 3 -45 -6 -53 -4 -62 14 -17 30 -13 62 11 101 12
19 65 126 119 238 l97 203 11 -48 c83 -378 85 -391 45 -422 -15 -12 -33 -21
-40 -21 -8 0 -14 -4 -14 -10 0 -5 6 -10 13 -10 23 1 271 106 274 117 3 9 -5 9
-31 1 -61 -19 -62 -17 -111 217 -15 72 -35 162 -46 201 -27 100 -25 148 7 173
14 11 30 21 36 23 6 2 9 9 7 16 -3 8 -18 5 -49 -9z"/>
<path d="M7793 6100 c0 -25 2 -35 4 -22 2 12 2 32 0 45 -2 12 -4 2 -4 -23z"/>
<path d="M7182 6110 c0 -14 2 -19 5 -12 2 6 2 18 0 25 -3 6 -5 1 -5 -13z"/>
<path d="M7782 6010 c0 -19 2 -27 5 -17 2 9 2 25 0 35 -3 9 -5 1 -5 -18z"/>
<path d="M7132 5988 c-6 -6 -44 -13 -85 -14 -73 -3 -109 -12 -137 -36 -21 -17
-50 -60 -50 -73 0 -5 9 5 20 23 27 43 74 62 157 62 70 0 79 3 102 33 15 19 11
23 -7 5z"/>
<path d="M7772 5935 c0 -16 2 -22 5 -12 2 9 2 23 0 30 -3 6 -5 -1 -5 -18z"/>
<path d="M7474 5769 c-10 -13 -14 -19 -7 -16 22 13 24 -12 8 -94 -8 -46 -13
-91 -9 -101 7 -24 36 -23 65 3 23 19 23 20 2 10 -12 -6 -24 -11 -26 -11 -13 0
-15 51 -5 126 13 95 5 119 -28 83z"/>
<path d="M6842 5740 c0 -19 2 -27 5 -17 2 9 2 25 0 35 -3 9 -5 1 -5 -18z"/>
<path d="M6852 5630 c0 -19 2 -27 5 -17 2 9 2 25 0 35 -3 9 -5 1 -5 -18z"/>
<path d="M7339 5603 c-13 -16 -12 -17 4 -4 16 13 21 21 13 21 -2 0 -10 -8 -17
-17z"/>
<path d="M6864 5565 c11 -70 50 -151 98 -202 28 -29 47 -57 43 -63 -5 -7 0 -7
13 1 20 13 21 13 1 41 -11 15 -30 35 -42 45 -35 28 -68 80 -94 147 -13 34 -22
48 -19 31z"/>
<path d="M1413 5564 c-10 -26 5 -124 22 -151 16 -24 16 -25 -4 -18 -17 5 -20
3 -15 -12 4 -10 17 -28 30 -41 13 -13 24 -30 24 -38 0 -33 105 -325 127 -351
20 -26 20 -22 -7 42 -27 67 -100 296 -100 316 0 5 12 3 28 -4 15 -8 59 -24 97
-37 39 -12 74 -26 80 -31 10 -10 35 -99 27 -99 -3 0 -15 11 -28 25 -29 31 -80
34 -89 5 -3 -11 3 -40 14 -65 39 -88 98 -142 134 -123 24 13 31 5 51 -58 9
-28 28 -62 41 -74 14 -13 25 -21 25 -18 0 3 -14 38 -30 79 -29 70 -100 291
-100 311 0 5 16 6 35 2 26 -5 35 -3 35 7 0 23 -13 35 -50 45 -28 8 -45 24 -86
88 -102 155 -238 259 -261 200z m120 -72 c51 -35 176 -186 164 -198 -3 -3 -56
14 -118 38 l-113 43 -20 62 c-16 52 -17 64 -6 78 16 19 41 13 93 -23z m177
-367 c40 -21 47 -51 19 -81 -27 -29 -33 -30 -59 -4 -26 26 -35 66 -20 85 16
19 24 19 60 0z"/>
<path d="M7150 5418 c-36 -33 -47 -47 -25 -30 38 29 104 92 94 92 -2 -1 -33
-28 -69 -62z"/>
<path d="M7047 5220 c3 -47 7 -87 9 -89 7 -8 2 124 -6 149 -4 14 -6 -12 -3
-60z"/>
<path d="M7394 5228 c-55 -52 -143 -183 -131 -195 8 -7 186 109 216 141 17 18
22 33 19 62 -5 60 -35 58 -104 -8z m31 -44 c-61 -54 -86 -62 -33 -10 26 25 53
46 60 46 7 -1 -5 -17 -27 -36z"/>
<path d="M3164 5106 c-1 -17 -16 -69 -35 -116 -34 -84 -35 -85 -67 -82 -52 5
-37 -13 42 -54 67 -35 73 -40 64 -59 -18 -35 -70 -84 -84 -78 -30 11 -7 -50
26 -67 15 -8 27 -5 56 15 20 14 40 25 44 25 18 0 48 -85 54 -155 5 -47 29 -94
54 -103 18 -6 15 46 -7 119 -10 35 -22 76 -25 91 -3 15 -15 32 -26 38 -30 16
-25 24 30 50 l50 23 23 -21 c30 -29 47 -28 47 2 0 26 -31 53 -88 76 -37 14
-56 5 -29 -14 9 -7 17 -16 17 -19 0 -7 -139 -51 -145 -46 -4 5 104 142 153
193 l36 38 -27 24 c-42 36 -63 32 -70 -14 -4 -20 -20 -59 -37 -85 l-30 -47
-35 22 c-19 13 -35 27 -35 31 0 12 85 129 109 151 12 11 21 24 21 31 0 16 -29
41 -61 53 -23 9 -25 8 -25 -22z"/>
<path d="M3454 5079 c7 -37 -28 -128 -74 -193 -43 -59 -35 -79 14 -36 35 31
38 32 54 17 17 -18 71 -255 72 -317 0 -63 62 -133 72 -83 4 21 90 39 236 49
109 8 132 22 68 44 -28 9 -45 8 -87 -4 -29 -9 -54 -14 -56 -12 -9 9 -32 110
-27 118 3 4 22 8 43 8 20 0 46 6 57 14 18 14 18 15 1 22 -10 3 -41 4 -68 1
-53 -7 -53 -7 -63 49 -4 29 -3 31 40 42 57 15 59 33 4 34 -3 1 -17 -2 -32 -6
-25 -6 -28 -4 -28 18 0 14 -7 32 -16 40 -14 15 -14 17 3 22 59 18 106 40 102
49 -5 12 -56 12 -82 1 -16 -7 -16 -5 -7 20 6 16 18 34 27 41 21 16 10 41 -23
53 -40 15 -47 9 -50 -43 -4 -62 -22 -99 -58 -116 -40 -19 -112 -26 -120 -12
-8 12 42 89 81 125 23 21 25 27 13 41 -17 21 -64 45 -86 45 -13 0 -15 -6 -10
-31z m143 -211 c6 -7 13 -27 16 -45 6 -33 4 -36 -54 -53 -25 -7 -27 -6 -33 30
-3 21 -9 45 -12 53 -9 23 67 36 83 15z m41 -150 c8 -31 8 -44 0 -49 -14 -9
-79 -22 -84 -17 -2 2 -6 22 -10 44 -6 40 -6 40 33 51 21 6 41 11 44 12 4 0 11
-18 17 -41z m32 -190 c-8 -4 -31 -7 -52 -7 -35 -1 -37 1 -44 42 -5 23 -8 46
-9 52 0 5 20 14 45 20 l45 11 15 -55 c14 -50 14 -57 0 -63z"/>
<path d="M7380 5089 c-72 -44 -139 -110 -150 -147 -11 -43 -4 -54 18 -27 23
28 104 95 114 95 33 0 -46 -187 -99 -233 -43 -38 -89 -125 -74 -140 13 -13 67
35 111 98 43 63 142 303 138 338 -4 39 -15 42 -58 16z"/>
<path d="M6860 4746 c-14 -7 -56 -18 -95 -24 -38 -5 -86 -17 -105 -26 -19 -9
-27 -14 -16 -11 10 3 59 12 109 20 78 12 137 34 137 50 0 7 -1 6 -30 -9z"/>
<path d="M3330 4632 c0 -4 17 -25 38 -45 44 -43 75 -49 70 -15 -4 31 -108 89
-108 60z"/>
<path d="M3160 4565 c-15 -52 -5 -100 20 -100 21 0 26 103 7 129 -13 17 -15
15 -27 -29z"/>
<path d="M5883 4595 c-12 -8 -29 -35 -38 -60 -17 -42 -17 -46 0 -71 l17 -27
102 6 c114 7 126 3 126 -49 0 -29 -27 -222 -46 -336 -8 -46 4 -49 46 -10 19
16 35 43 40 67 18 80 40 252 46 350 9 143 5 146 -162 130 -57 -5 -83 -4 -88 4
-9 15 -17 14 -43 -4z"/>
<path d="M6506 4480 c-13 -94 23 -140 93 -120 44 12 141 66 181 101 32 28 31
27 -23 -6 -70 -44 -156 -85 -178 -85 -36 0 -52 26 -59 96 l-6 69 -8 -55z"/>
<path d="M6851 4504 c0 -11 3 -14 6 -6 3 7 2 16 -1 19 -3 4 -6 -2 -5 -13z"/>
<path d="M6836 4463 c-6 -14 -5 -15 5 -6 7 7 10 15 7 18 -3 3 -9 -2 -12 -12z"/>
<path d="M6805 4414 c-9 -15 -12 -23 -6 -20 11 7 35 46 28 46 -3 0 -12 -12
-22 -26z"/>
<path d="M6769 4363 c-13 -16 -12 -17 4 -4 16 13 21 21 13 21 -2 0 -10 -8 -17
-17z"/>
<path d="M6729 4313 l-24 -28 28 24 c15 14 27 26 27 28 0 8 -8 1 -31 -24z"/>
<path d="M6659 4233 c-34 -38 -92 -113 -86 -113 2 0 30 32 61 70 58 72 68 90
25 43z"/>
<path d="M6893 4243 c-4 -10 -29 -45 -56 -78 l-49 -60 57 60 c62 65 82 95 65
95 -6 0 -13 -8 -17 -17z"/>
<path d="M2090 4187 c0 -22 54 -90 99 -126 57 -45 52 -29 -9 28 -51 48 -62 71
-35 71 32 0 76 -32 125 -91 50 -60 59 -79 39 -79 -22 0 12 -29 42 -35 26 -6
119 -83 214 -178 l30 -29 -30 7 c-41 9 -145 86 -188 137 -20 24 -39 40 -42 36
-11 -11 6 -33 65 -82 112 -96 240 -155 240 -111 0 29 -142 153 -230 201 -33
18 -50 34 -50 46 0 53 -90 147 -185 192 -62 29 -85 33 -85 13z"/>
<path d="M6451 3921 c-29 -69 -26 -78 5 -12 13 30 23 56 20 58 -2 2 -13 -19
-25 -46z"/>
<path d="M6388 3853 c6 -2 18 -2 25 0 6 3 1 5 -13 5 -14 0 -19 -2 -12 -5z"/>
<path d="M3555 3796 c-19 -14 -19 -17 -5 -42 31 -56 175 -103 210 -68 17 17
-3 50 -43 70 l-32 17 19 -21 c32 -36 14 -55 -45 -50 -59 6 -103 38 -81 60 20
20 251 15 332 -6 160 -43 310 -149 310 -219 0 -41 -25 -52 -114 -52 -69 0 -90
4 -134 27 l-52 27 0 -24 c0 -35 -31 -47 -119 -48 -56 -1 -88 4 -121 19 -53 25
-78 50 -63 65 16 16 97 13 132 -5 34 -18 41 -36 14 -36 -9 0 -14 -3 -10 -6 9
-10 47 6 47 20 0 23 -36 46 -91 57 -116 24 -149 -36 -56 -98 95 -63 229 -83
281 -42 18 14 26 28 23 40 -6 23 6 25 23 5 47 -57 271 -64 306 -10 15 22 14
26 -8 66 -42 76 -207 178 -378 233 -107 35 -311 47 -345 21z"/>
<path d="M6266 3713 c-23 -15 -54 -26 -75 -27 -36 -1 -51 -10 -51 -33 0 -19
21 -16 73 11 55 28 48 16 -28 -45 -30 -24 -52 -45 -50 -47 12 -12 185 136 185
158 0 16 -12 12 -54 -17z"/>
<path d="M6031 3704 c-56 -28 -87 -64 -77 -90 8 -21 -35 -79 -63 -87 -18 -4
-19 -2 -10 14 8 15 6 21 -6 25 -57 22 -265 -78 -265 -127 0 -15 71 -4 114 18
17 9 38 17 46 18 21 2 172 56 186 67 20 14 67 88 61 94 -3 3 -15 0 -27 -6 -18
-10 -21 -9 -18 2 4 12 93 67 111 68 15 0 6 -24 -29 -72 -36 -51 -41 -65 -13
-45 18 14 89 123 89 137 0 18 -45 10 -99 -16z m-226 -194 c-32 -34 -45 -38
-45 -14 0 12 -7 14 -32 10 -33 -6 -32 -5 7 14 22 11 53 20 69 20 l30 0 -29
-30z m-95 -34 c0 -2 -15 -9 -32 -15 -30 -10 -31 -9 -14 4 18 14 46 20 46 11z"/>
<path d="M5158 3498 c-5 -28 -4 -29 9 -13 15 21 17 45 4 45 -5 0 -11 -14 -13
-32z"/>
<path d="M5123 3430 c-22 -53 26 -79 113 -60 27 6 85 22 128 37 60 19 83 23
96 15 17 -10 40 1 40 20 0 15 -42 8 -162 -28 -99 -30 -127 -35 -157 -28 -29 7
-37 15 -42 39 l-6 30 -10 -25z"/>
<path d="M4162 3299 c2 -7 10 -15 17 -17 8 -3 12 1 9 9 -2 7 -10 15 -17 17 -8
3 -12 -1 -9 -9z"/>
<path d="M5107 3293 c-4 -3 -7 -10 -7 -14 0 -13 71 -29 125 -28 l50 1 -60 14
c-33 7 -68 18 -77 24 -21 12 -23 12 -31 3z"/>
<path d="M4425 3255 c-5 -2 -23 -6 -38 -9 -36 -8 -25 -26 16 -27 25 0 28 -2
13 -8 -27 -10 -4 -23 29 -16 71 14 80 15 66 6 -7 -5 -10 -14 -6 -21 5 -8 33
-10 104 -5 53 4 99 9 103 12 5 2 -16 17 -45 32 -42 22 -71 29 -142 33 -50 4
-94 5 -100 3z m12 -21 c-3 -3 -12 -4 -19 -1 -8 3 -5 6 6 6 11 1 17 -2 13 -5z
m148 -3 c-3 -5 5 -12 17 -14 13 -3 -2 -4 -32 -2 -73 6 -80 7 -80 17 0 4 23 8
51 8 28 0 48 -4 44 -9z m83 -38 c-10 -2 -28 -2 -40 0 -13 2 -5 4 17 4 22 1 32
-1 23 -4z"/>
<path d="M5308 3243 c6 -2 18 -2 25 0 6 3 1 5 -13 5 -14 0 -19 -2 -12 -5z"/>
<path d="M530 2601 c0 -20 19 -31 54 -31 40 0 72 -37 111 -127 21 -48 109
-243 197 -433 88 -190 176 -381 195 -425 35 -82 57 -115 78 -115 27 0 69 68
172 273 l108 217 104 -224 c108 -236 134 -276 169 -257 25 13 29 21 268 564
106 242 200 450 209 463 22 34 62 57 109 64 33 4 42 9 44 28 l3 22 -195 0
c-154 0 -196 -3 -196 -13 0 -22 22 -37 55 -37 48 0 78 -26 71 -62 -5 -25 -314
-768 -336 -808 -6 -11 -39 47 -114 200 -58 118 -106 221 -106 228 0 17 194
378 221 411 11 13 34 27 52 30 23 5 33 13 35 29 3 22 3 22 -153 22 -156 0
-156 0 -153 -22 2 -17 12 -24 38 -28 46 -8 60 -17 60 -39 0 -22 -138 -301
-149 -301 -13 0 -153 298 -149 317 2 12 15 20 38 23 27 4 36 10 38 28 l3 22
-170 0 c-161 0 -171 -1 -171 -19 0 -14 12 -23 41 -33 41 -13 42 -14 166 -258
l125 -245 -91 -183 c-50 -100 -95 -182 -99 -182 -4 0 -13 12 -19 28 -6 15 -76
167 -155 337 -80 171 -160 347 -178 392 -39 96 -35 110 38 115 40 3 47 6 50
26 l3 22 -210 0 c-200 0 -211 -1 -211 -19z"/>
<path d="M7798 2610 c-9 -6 -105 -218 -213 -473 -109 -254 -208 -484 -222
-510 -26 -53 -66 -82 -125 -92 -31 -6 -38 -11 -38 -29 l0 -23 195 -1 195 -1 0
25 c0 18 -5 24 -22 24 -46 0 -99 21 -109 44 -9 18 -1 46 41 152 77 194 46 174
278 174 l199 0 56 -157 c66 -186 65 -193 -27 -207 -49 -7 -56 -11 -56 -31 l0
-23 215 1 215 0 0 23 c0 17 -8 23 -37 29 -62 11 -93 33 -114 79 -10 23 -92
238 -183 478 -191 505 -193 510 -209 520 -15 10 -18 10 -39 -2z m41 -337 c29
-82 66 -183 82 -225 l28 -78 -165 0 c-134 0 -166 3 -170 14 -6 15 154 436 166
436 3 0 30 -66 59 -147z"/>
<path d="M2230 2256 c0 -21 6 -25 48 -31 26 -4 53 -12 60 -17 9 -8 12 -85 12
-323 0 -351 3 -337 -77 -350 -36 -6 -43 -10 -43 -30 l0 -23 185 0 185 0 0 23
c0 19 -7 24 -39 30 -80 13 -76 -5 -76 350 0 352 -5 329 73 341 36 5 42 10 42
30 l0 24 -185 0 -185 0 0 -24z"/>
<path d="M2740 2256 c0 -21 6 -25 50 -31 34 -5 54 -13 60 -25 6 -11 10 -141
10 -319 0 -340 2 -332 -79 -346 -34 -6 -41 -11 -41 -30 l0 -24 175 1 175 1 0
23 c0 19 -8 25 -40 34 -22 6 -44 19 -50 30 -5 10 -10 77 -10 149 0 122 1 131
19 131 39 0 56 -16 172 -162 86 -108 119 -156 119 -176 l0 -27 123 0 c114 1
122 2 125 21 2 16 -7 23 -50 37 -52 16 -60 24 -196 189 -78 95 -142 180 -142
189 0 23 213 265 250 284 16 8 50 18 75 22 39 5 45 9 45 29 l0 24 -155 0 -155
0 0 -24 c0 -17 7 -26 24 -30 48 -12 42 -45 -23 -126 -93 -117 -149 -166 -208
-184 l-23 -7 0 140 c0 155 3 164 65 175 29 6 35 11 35 31 l0 25 -175 0 -175 0
0 -24z"/>
<path d="M3664 2266 c-9 -23 2 -33 48 -40 23 -4 48 -12 55 -18 10 -8 13 -78
13 -322 0 -171 -4 -317 -9 -324 -4 -7 -30 -19 -57 -26 -37 -9 -49 -17 -49 -32
0 -18 9 -19 185 -19 176 0 185 1 185 19 0 15 -12 23 -49 32 -27 7 -53 19 -57
26 -5 7 -9 153 -9 324 0 237 3 314 13 322 6 5 32 14 57 19 35 7 45 13 45 28 0
19 -9 20 -183 23 -153 2 -183 0 -188 -12z"/>
<path d="M4170 2256 c0 -21 6 -24 47 -29 29 -3 52 -12 60 -23 10 -14 13 -88
13 -326 l0 -308 -22 -14 c-13 -7 -40 -17 -60 -20 -31 -6 -38 -11 -38 -30 l0
-23 185 0 185 0 0 23 c0 19 -7 24 -37 30 -80 14 -83 19 -83 157 l0 122 113 0
c129 0 170 15 229 85 41 47 58 97 58 171 0 65 -22 112 -70 150 -60 48 -129 59
-367 59 l-213 0 0 -24z m456 -51 c37 -24 54 -74 54 -160 0 -134 -33 -177 -141
-183 -38 -2 -80 -1 -94 2 l-25 7 2 166 c3 167 3 167 28 181 33 17 142 10 176
-13z"/>
<path d="M4950 2256 c0 -21 6 -25 51 -31 42 -6 52 -11 60 -33 6 -16 9 -142 7
-318 -3 -329 -3 -326 -79 -339 -31 -5 -39 -11 -39 -28 l0 -22 312 1 313 1 17
94 c9 52 14 97 11 102 -12 19 -33 2 -56 -46 -37 -75 -67 -89 -194 -95 -84 -4
-107 -2 -128 12 -25 16 -25 17 -25 166 l0 150 78 0 c42 0 83 -4 89 -8 7 -4 19
-26 26 -47 9 -26 20 -40 31 -40 16 0 17 13 17 125 0 111 -2 125 -16 125 -11 0
-23 -16 -34 -45 l-17 -45 -87 -3 -87 -3 0 135 c0 164 -4 160 141 154 118 -4
140 -17 182 -100 23 -45 32 -55 48 -51 11 3 18 11 15 18 -2 6 -7 38 -11 71 -3
32 -8 74 -11 92 l-5 32 -304 0 -305 0 0 -24z"/>
<path d="M5752 2258 c2 -19 13 -24 58 -33 l55 -10 2 -320 c2 -176 -1 -326 -6
-333 -4 -7 -30 -19 -57 -26 -37 -9 -49 -17 -49 -32 0 -18 9 -19 270 -18 250 0
274 2 328 22 166 61 245 193 235 389 -9 153 -72 264 -187 326 -84 46 -160 57
-419 57 l-233 0 3 -22z m502 -50 c61 -19 131 -89 157 -156 31 -79 38 -264 15
-346 -34 -117 -117 -170 -266 -171 -117 0 -137 7 -149 53 -15 50 -14 577 0
603 6 11 20 24 32 30 28 12 160 4 211 -13z"/>
<path d="M6750 2256 c0 -20 6 -25 43 -30 77 -12 72 11 72 -341 0 -355 4 -337
-76 -350 -32 -6 -39 -11 -39 -30 l0 -23 183 1 c178 2 182 2 185 24 3 18 -3 22
-40 28 -81 13 -78 -2 -78 350 0 238 3 315 13 323 6 5 32 14 57 19 36 7 46 13
48 31 l3 22 -185 0 -186 0 0 -24z"/>
<path d="M1125 1107 c-36 -20 -58 -22 -246 -25 -178 -3 -207 -2 -218 12 -22
27 -29 19 -36 -44 -9 -73 -9 -74 2 -77 5 -2 15 13 22 32 14 40 33 48 112 43
l54 -3 3 -229 c2 -160 -1 -233 -9 -242 -6 -8 -24 -14 -40 -14 -19 0 -29 -5
-29 -15 0 -12 20 -15 120 -15 100 0 120 3 120 15 0 10 -10 15 -28 15 -51 0
-52 7 -52 251 0 260 -9 239 101 239 115 0 109 13 109 -230 0 -115 -4 -220 -9
-234 -6 -14 -19 -26 -32 -28 -12 -2 -24 -9 -27 -15 -3 -10 20 -13 92 -13 95 0
122 11 72 29 -18 7 -24 19 -30 57 -9 67 -8 149 3 177 11 30 69 67 103 67 51 0
59 -25 56 -166 -3 -125 -4 -129 -25 -132 -13 -2 -23 -10 -23 -18 0 -11 19 -14
90 -14 73 0 90 3 90 15 0 8 -9 15 -19 15 -11 0 -23 6 -28 13 -4 6 -10 73 -13
148 -6 153 -14 173 -75 185 -36 6 -110 -21 -134 -49 -30 -36 -34 -18 -29 123
3 77 3 142 -1 144 -3 2 -24 -6 -46 -17z"/>
<path d="M5842 1116 c-56 -12 -69 -27 -30 -36 l23 -6 0 -254 0 -255 -27 -3
c-16 -2 -28 -9 -28 -18 0 -11 20 -14 101 -14 76 0 100 3 97 13 -3 6 -13 14
-24 15 -42 8 -45 24 -44 302 1 145 -2 265 -7 266 -4 1 -32 -4 -61 -10z"/>
<path d="M7543 1117 c-54 -11 -72 -33 -31 -39 27 -4 40 -55 36 -133 -2 -39 -6
-49 -18 -46 -8 2 -38 4 -66 5 -106 1 -179 -83 -178 -205 0 -76 21 -121 74
-156 43 -30 76 -29 134 2 26 14 49 25 52 25 2 0 4 -12 4 -26 0 -21 3 -25 18
-19 9 5 37 13 61 20 47 12 67 35 33 35 -12 0 -28 7 -37 16 -13 14 -15 50 -15
272 1 141 -2 257 -7 258 -4 0 -32 -4 -60 -9z m-18 -267 c16 -16 20 -37 23
-120 4 -99 4 -99 -26 -129 -84 -84 -162 -24 -162 126 0 105 43 160 115 148 16
-3 39 -14 50 -25z"/>
<path d="M2040 1074 c0 -7 12 -15 27 -19 15 -3 31 -12 35 -18 4 -7 8 -111 8
-233 0 -233 -2 -244 -47 -244 -14 0 -23 -6 -23 -15 0 -12 19 -15 110 -15 91 0
110 3 110 15 0 9 -9 15 -23 15 -41 0 -47 17 -47 137 l0 113 49 0 c65 0 101
-14 101 -40 0 -11 7 -20 15 -20 12 0 15 15 15 75 0 60 -3 75 -15 75 -8 0 -15
-8 -15 -18 0 -32 -22 -42 -87 -42 l-64 0 3 103 3 102 69 3 c78 3 111 -12 128
-59 5 -16 17 -29 25 -29 11 0 13 10 8 48 -4 26 -9 54 -11 62 -3 13 -33 15
-189 15 -132 0 -185 -3 -185 -11z"/>
<path d="M3690 1074 c0 -6 14 -15 32 -20 22 -6 35 -18 39 -34 4 -14 7 -110 8
-215 1 -210 -5 -238 -52 -243 -15 -2 -27 -9 -27 -18 0 -12 34 -14 204 -14
l204 0 16 67 c8 37 13 70 10 75 -10 16 -21 7 -40 -33 -26 -60 -63 -79 -149
-79 -42 0 -76 5 -83 12 -8 8 -12 50 -12 125 l0 113 49 0 c65 0 101 -14 101
-40 0 -11 7 -20 15 -20 12 0 15 15 15 76 0 56 -3 75 -12 72 -7 -3 -15 -13 -17
-24 -5 -28 -19 -34 -89 -34 l-63 0 3 103 3 102 64 3 c82 4 117 -10 133 -54 25
-70 48 -25 29 59 l-6 27 -188 3 c-131 1 -187 -1 -187 -9z"/>
<path d="M7764 1055 c-7 -29 10 -55 36 -55 26 0 43 26 36 55 -5 20 -13 25 -36
25 -23 0 -31 -5 -36 -25z"/>
<path d="M1653 899 c-45 -9 -97 -51 -119 -96 -26 -54 -26 -157 1 -203 24 -41
94 -80 142 -80 41 0 100 24 130 52 30 28 18 43 -15 19 -89 -62 -184 -11 -206
112 l-7 37 121 0 c135 0 138 2 121 67 -19 71 -88 109 -168 92z m71 -40 c21
-16 26 -28 24 -53 l-3 -31 -77 -3 c-71 -3 -78 -1 -78 16 0 37 55 89 96 91 6 1
23 -9 38 -20z"/>
<path d="M2521 896 c-53 -11 -83 -36 -44 -36 37 0 43 -19 43 -150 0 -130 -6
-150 -42 -150 -10 0 -18 -7 -18 -15 0 -12 18 -15 100 -15 82 0 100 3 100 15 0
9 -9 15 -23 15 -40 0 -47 18 -47 120 0 77 4 101 20 128 25 41 46 49 70 27 25
-22 60 -5 60 30 0 55 -71 55 -120 -1 l-30 -35 0 41 c0 22 -3 39 -7 39 -5 -1
-32 -7 -62 -13z"/>
<path d="M3305 900 c-67 -14 -125 -81 -139 -161 -10 -57 11 -132 46 -168 62
-64 170 -67 236 -6 43 39 38 57 -7 24 -44 -32 -111 -32 -146 1 -33 30 -55 78
-55 120 l0 30 120 0 120 0 0 31 c0 41 -27 97 -54 111 -31 17 -87 25 -121 18z
m58 -29 c26 -10 54 -71 42 -91 -9 -15 -165 -13 -165 3 0 22 40 78 63 87 29 12
31 12 60 1z"/>
<path d="M4233 897 c-56 -11 -67 -26 -30 -42 21 -10 22 -16 25 -139 3 -134 -3
-156 -39 -156 -11 0 -19 -7 -19 -15 0 -12 17 -15 95 -15 98 0 116 9 68 32 -28
13 -28 14 -31 122 -3 118 2 132 60 162 41 21 75 17 93 -10 12 -19 15 -48 13
-142 -3 -119 -3 -119 -31 -132 -45 -22 -21 -32 74 -32 72 0 89 3 89 15 0 8 -8
15 -18 15 -36 0 -42 21 -42 135 0 144 -11 182 -56 201 -49 20 -99 9 -146 -34
l-38 -34 0 41 c0 22 -3 40 -7 39 -5 0 -32 -6 -60 -11z"/>
<path d="M4755 892 c-49 -23 -79 -55 -100 -104 -34 -83 -6 -199 57 -238 72
-44 149 -38 203 16 44 44 36 63 -11 28 -43 -33 -103 -37 -134 -9 -72 65 -76
213 -8 270 50 42 97 27 112 -37 5 -21 12 -28 30 -28 35 0 52 25 38 55 -26 56
-118 79 -187 47z"/>
<path d="M5569 900 c-81 -24 -129 -95 -129 -189 0 -34 6 -76 14 -94 28 -68
111 -108 187 -92 35 8 99 60 99 81 0 20 -14 17 -35 -6 -30 -34 -79 -44 -119
-25 -94 45 -103 245 -14 294 38 21 78 6 92 -36 15 -42 20 -47 51 -39 18 5 25
13 25 31 0 33 -29 61 -77 74 -43 12 -57 13 -94 1z"/>
<path d="M6145 895 c-151 -53 -166 -290 -22 -356 129 -58 257 30 257 176 0 96
-45 162 -125 184 -50 14 -61 13 -110 -4z m102 -35 c75 -45 86 -261 15 -299
-84 -45 -161 35 -162 167 0 123 65 182 147 132z"/>
<path d="M6483 897 c-56 -11 -69 -31 -28 -41 l25 -6 -2 -243 -3 -242 -27 -3
c-16 -2 -28 -9 -28 -18 0 -11 21 -14 106 -14 80 0 105 3 102 13 -3 6 -15 13
-29 15 -38 5 -49 29 -49 104 l0 69 59 -7 c109 -12 190 48 213 159 14 68 1 121
-43 172 -43 49 -89 62 -144 41 -24 -10 -49 -24 -55 -32 -19 -22 -30 -17 -30
16 0 17 -3 29 -7 28 -5 0 -32 -6 -60 -11z m206 -42 c40 -20 61 -71 61 -145 0
-37 -7 -76 -16 -96 -29 -62 -107 -83 -158 -43 -25 20 -26 24 -26 125 0 102 1
106 28 131 46 43 71 49 111 28z"/>
<path d="M7763 897 c-32 -7 -53 -16 -53 -24 0 -7 6 -13 14 -13 37 0 46 -28 46
-140 0 -123 -9 -157 -41 -162 -12 -2 -24 -9 -27 -15 -3 -10 21 -13 97 -13 81
0 101 3 101 14 0 8 -12 16 -27 18 -38 4 -46 50 -39 216 5 102 3 132 -7 130 -6
0 -36 -6 -64 -11z"/>
<path d="M8047 896 c-50 -18 -87 -53 -87 -82 0 -28 14 -37 40 -29 15 5 20 15
20 41 0 28 5 36 26 44 63 24 106 -4 108 -70 l1 -43 -61 -16 c-137 -39 -191
-116 -130 -188 21 -24 32 -28 78 -28 38 0 61 6 83 22 l31 21 21 -24 c25 -28
52 -30 93 -9 39 20 38 33 -2 31 l-33 -1 -6 131 c-7 166 -21 193 -109 208 -20
3 -52 0 -73 -8z m113 -231 c0 -63 -1 -66 -32 -85 -61 -37 -118 -15 -118 47 0
43 69 92 143 102 4 1 7 -28 7 -64z"/>
<path d="M2874 881 c-68 -41 -99 -109 -92 -202 7 -94 57 -146 149 -155 44 -5
62 -1 98 18 45 24 71 52 59 63 -4 4 -19 -3 -35 -14 -86 -64 -180 -13 -199 108
l-7 41 122 0 121 0 0 38 c0 46 -31 99 -66 112 -42 16 -116 12 -150 -9z m129
-33 c10 -12 17 -33 15 -47 -3 -25 -5 -26 -85 -29 -80 -3 -81 -3 -76 20 20 79
100 110 146 56z"/>
<path d="M4980 886 c0 -8 11 -17 24 -20 19 -5 36 -33 90 -156 73 -167 79 -202
43 -265 -19 -34 -28 -40 -60 -43 -25 -2 -40 -10 -48 -23 -20 -38 26 -63 71
-39 28 15 60 75 145 275 88 207 105 237 140 253 45 21 28 32 -50 32 -60 0 -75
-3 -75 -15 0 -8 9 -15 19 -15 11 0 23 -5 26 -11 8 -12 -83 -229 -95 -229 -12
0 -102 219 -95 230 3 6 13 10 21 10 8 0 14 7 14 15 0 12 -16 15 -85 15 -66 0
-85 -3 -85 -14z"/>
<path d="M6995 881 c-75 -45 -101 -105 -93 -207 5 -58 24 -93 72 -128 42 -32
140 -29 189 4 35 24 53 48 43 57 -2 3 -17 -5 -33 -16 -43 -32 -91 -36 -131
-11 -36 22 -71 88 -72 133 l0 27 120 0 120 0 0 35 c0 48 -24 91 -60 110 -40
21 -118 19 -155 -4z m123 -25 c8 -8 15 -29 15 -47 l2 -34 -83 -3 c-83 -3 -84
-3 -77 20 11 37 35 68 58 78 26 11 67 4 85 -14z"/>
</g>
</svg>
